<mxfile host="app.diagrams.net" agent="Mozilla/5.0 (Windows NT 10.0; Win64; x64) AppleWebKit/537.36 (KHTML, like Gecko) Chrome/139.0.0.0 Safari/537.36" version="28.1.1">
  <diagram name="Page-1" id="2ca16b54-16f6-2749-3443-fa8db7711227">
    <mxGraphModel dx="1567" dy="890" grid="1" gridSize="10" guides="1" tooltips="1" connect="1" arrows="1" fold="1" page="1" pageScale="1" pageWidth="1100" pageHeight="850" background="none" math="0" shadow="0">
      <root>
        <mxCell id="0" />
        <mxCell id="1" parent="0" />
        <mxCell id="aD1stk46LfaJt2utOllN-83" value="" style="group" parent="1" vertex="1" connectable="0">
          <mxGeometry x="1000" y="99" width="210" height="141" as="geometry" />
        </mxCell>
        <mxCell id="aD1stk46LfaJt2utOllN-60" value="" style="group;fillColor=#647687;fontColor=#ffffff;strokeColor=#314354;" parent="aD1stk46LfaJt2utOllN-83" vertex="1" connectable="0">
          <mxGeometry width="210" height="81" as="geometry" />
        </mxCell>
        <mxCell id="aD1stk46LfaJt2utOllN-61" value="&lt;b&gt;courses&lt;/b&gt;" style="rounded=0;whiteSpace=wrap;html=1;fillColor=#fff2cc;strokeColor=#d6b656;" parent="aD1stk46LfaJt2utOllN-60" vertex="1">
          <mxGeometry width="210" height="21" as="geometry" />
        </mxCell>
        <mxCell id="aD1stk46LfaJt2utOllN-62" value="PK" style="rounded=0;whiteSpace=wrap;html=1;fillColor=#647687;fontColor=#ffffff;strokeColor=#314354;" parent="aD1stk46LfaJt2utOllN-60" vertex="1">
          <mxGeometry y="21" width="23.75" height="20" as="geometry" />
        </mxCell>
        <mxCell id="aD1stk46LfaJt2utOllN-63" value="" style="rounded=0;whiteSpace=wrap;html=1;fillColor=#647687;fontColor=#ffffff;strokeColor=#314354;" parent="aD1stk46LfaJt2utOllN-60" vertex="1">
          <mxGeometry x="118.75" y="21" width="91.25" height="20" as="geometry" />
        </mxCell>
        <mxCell id="aD1stk46LfaJt2utOllN-64" value="id" style="rounded=0;whiteSpace=wrap;html=1;fillColor=#647687;fontColor=#ffffff;strokeColor=#314354;" parent="aD1stk46LfaJt2utOllN-60" vertex="1">
          <mxGeometry x="23.75" y="21" width="95" height="20" as="geometry" />
        </mxCell>
        <mxCell id="aD1stk46LfaJt2utOllN-65" value="" style="rounded=0;whiteSpace=wrap;html=1;" parent="aD1stk46LfaJt2utOllN-60" vertex="1">
          <mxGeometry y="41" width="23.75" height="20" as="geometry" />
        </mxCell>
        <mxCell id="aD1stk46LfaJt2utOllN-66" value="&lt;span style=&quot;font-size: 12px;&quot;&gt;VARCHAR(255)&lt;/span&gt;" style="rounded=0;whiteSpace=wrap;html=1;" parent="aD1stk46LfaJt2utOllN-60" vertex="1">
          <mxGeometry x="118.75" y="41" width="91.25" height="20" as="geometry" />
        </mxCell>
        <mxCell id="aD1stk46LfaJt2utOllN-67" value="title" style="rounded=0;whiteSpace=wrap;html=1;" parent="aD1stk46LfaJt2utOllN-60" vertex="1">
          <mxGeometry x="23.75" y="41" width="95" height="20" as="geometry" />
        </mxCell>
        <mxCell id="aD1stk46LfaJt2utOllN-68" value="&lt;font&gt;description&lt;/font&gt;" style="rounded=0;whiteSpace=wrap;html=1;" parent="aD1stk46LfaJt2utOllN-60" vertex="1">
          <mxGeometry x="23.75" y="61" width="96.25" height="20" as="geometry" />
        </mxCell>
        <mxCell id="aD1stk46LfaJt2utOllN-69" value="" style="rounded=0;whiteSpace=wrap;html=1;" parent="aD1stk46LfaJt2utOllN-83" vertex="1">
          <mxGeometry y="61" width="24" height="20" as="geometry" />
        </mxCell>
        <mxCell id="aD1stk46LfaJt2utOllN-70" value="&lt;span style=&quot;font-size: 12px;&quot;&gt;TEXT&amp;nbsp;&lt;/span&gt;" style="rounded=0;whiteSpace=wrap;html=1;" parent="aD1stk46LfaJt2utOllN-83" vertex="1">
          <mxGeometry x="119" y="61" width="91" height="20" as="geometry" />
        </mxCell>
        <mxCell id="aD1stk46LfaJt2utOllN-71" value="" style="rounded=0;whiteSpace=wrap;html=1;" parent="aD1stk46LfaJt2utOllN-83" vertex="1">
          <mxGeometry y="81" width="24" height="20" as="geometry" />
        </mxCell>
        <mxCell id="aD1stk46LfaJt2utOllN-72" value="INT" style="rounded=0;whiteSpace=wrap;html=1;" parent="aD1stk46LfaJt2utOllN-83" vertex="1">
          <mxGeometry x="119" y="81" width="91" height="20" as="geometry" />
        </mxCell>
        <mxCell id="aD1stk46LfaJt2utOllN-73" value="&lt;font&gt;author_id&lt;/font&gt;" style="rounded=0;whiteSpace=wrap;html=1;" parent="aD1stk46LfaJt2utOllN-83" vertex="1">
          <mxGeometry x="24" y="81" width="95" height="20" as="geometry" />
        </mxCell>
        <mxCell id="aD1stk46LfaJt2utOllN-77" value="" style="rounded=0;whiteSpace=wrap;html=1;" parent="aD1stk46LfaJt2utOllN-83" vertex="1">
          <mxGeometry y="101" width="24" height="20" as="geometry" />
        </mxCell>
        <mxCell id="aD1stk46LfaJt2utOllN-78" value="&lt;span style=&quot;font-size: 12px;&quot;&gt;TIMESTAMP&lt;/span&gt;" style="rounded=0;whiteSpace=wrap;html=1;" parent="aD1stk46LfaJt2utOllN-83" vertex="1">
          <mxGeometry x="119" y="101" width="91" height="20" as="geometry" />
        </mxCell>
        <mxCell id="aD1stk46LfaJt2utOllN-79" value="&lt;font&gt;created_at&lt;/font&gt;" style="rounded=0;whiteSpace=wrap;html=1;" parent="aD1stk46LfaJt2utOllN-83" vertex="1">
          <mxGeometry x="24" y="101" width="95" height="20" as="geometry" />
        </mxCell>
        <mxCell id="aD1stk46LfaJt2utOllN-80" value="" style="rounded=0;whiteSpace=wrap;html=1;" parent="aD1stk46LfaJt2utOllN-83" vertex="1">
          <mxGeometry y="121" width="24" height="20" as="geometry" />
        </mxCell>
        <mxCell id="aD1stk46LfaJt2utOllN-81" value="&lt;span style=&quot;font-size: 12px;&quot;&gt;TIMESTAMP&lt;/span&gt;" style="rounded=0;whiteSpace=wrap;html=1;" parent="aD1stk46LfaJt2utOllN-83" vertex="1">
          <mxGeometry x="119" y="121" width="91" height="20" as="geometry" />
        </mxCell>
        <mxCell id="aD1stk46LfaJt2utOllN-82" value="&lt;font&gt;updated_at&lt;/font&gt;" style="rounded=0;whiteSpace=wrap;html=1;" parent="aD1stk46LfaJt2utOllN-83" vertex="1">
          <mxGeometry x="24" y="121" width="95" height="20" as="geometry" />
        </mxCell>
        <mxCell id="aD1stk46LfaJt2utOllN-107" value="" style="edgeStyle=entityRelationEdgeStyle;fontSize=12;html=1;endArrow=ERoneToMany;rounded=0;exitX=1;exitY=0.5;exitDx=0;exitDy=0;entryX=0;entryY=0.5;entryDx=0;entryDy=0;" parent="1" source="aD1stk46LfaJt2utOllN-31" target="aD1stk46LfaJt2utOllN-113" edge="1">
          <mxGeometry width="100" height="100" relative="1" as="geometry">
            <mxPoint x="320" y="330" as="sourcePoint" />
            <mxPoint x="420" y="230" as="targetPoint" />
          </mxGeometry>
        </mxCell>
        <mxCell id="aD1stk46LfaJt2utOllN-108" value="" style="group" parent="1" vertex="1" connectable="0">
          <mxGeometry x="710" y="264" width="210" height="81" as="geometry" />
        </mxCell>
        <mxCell id="aD1stk46LfaJt2utOllN-109" value="&lt;b&gt;enrollments&lt;/b&gt;" style="rounded=0;whiteSpace=wrap;html=1;fillColor=#fff2cc;strokeColor=#d6b656;" parent="aD1stk46LfaJt2utOllN-108" vertex="1">
          <mxGeometry width="210" height="21" as="geometry" />
        </mxCell>
        <mxCell id="aD1stk46LfaJt2utOllN-110" value="PK" style="rounded=0;whiteSpace=wrap;html=1;fillColor=#647687;fontColor=#ffffff;strokeColor=#314354;" parent="aD1stk46LfaJt2utOllN-108" vertex="1">
          <mxGeometry y="21" width="23.75" height="20" as="geometry" />
        </mxCell>
        <mxCell id="aD1stk46LfaJt2utOllN-111" value="" style="rounded=0;whiteSpace=wrap;html=1;fillColor=#647687;fontColor=#ffffff;strokeColor=#314354;" parent="aD1stk46LfaJt2utOllN-108" vertex="1">
          <mxGeometry x="118.75" y="21" width="91.25" height="20" as="geometry" />
        </mxCell>
        <mxCell id="aD1stk46LfaJt2utOllN-112" value="id" style="rounded=0;whiteSpace=wrap;html=1;fillColor=#647687;fontColor=#ffffff;strokeColor=#314354;" parent="aD1stk46LfaJt2utOllN-108" vertex="1">
          <mxGeometry x="23.75" y="21" width="95" height="20" as="geometry" />
        </mxCell>
        <mxCell id="aD1stk46LfaJt2utOllN-113" value="" style="rounded=0;whiteSpace=wrap;html=1;" parent="aD1stk46LfaJt2utOllN-108" vertex="1">
          <mxGeometry y="41" width="23.75" height="20" as="geometry" />
        </mxCell>
        <mxCell id="aD1stk46LfaJt2utOllN-114" value="INT" style="rounded=0;whiteSpace=wrap;html=1;" parent="aD1stk46LfaJt2utOllN-108" vertex="1">
          <mxGeometry x="118.75" y="41" width="91.25" height="20" as="geometry" />
        </mxCell>
        <mxCell id="aD1stk46LfaJt2utOllN-115" value="user_id" style="rounded=0;whiteSpace=wrap;html=1;" parent="aD1stk46LfaJt2utOllN-108" vertex="1">
          <mxGeometry x="23.75" y="41" width="95" height="20" as="geometry" />
        </mxCell>
        <mxCell id="aD1stk46LfaJt2utOllN-116" value="&lt;font&gt;course_id&lt;/font&gt;" style="rounded=0;whiteSpace=wrap;html=1;" parent="aD1stk46LfaJt2utOllN-108" vertex="1">
          <mxGeometry x="23.75" y="61" width="96.25" height="20" as="geometry" />
        </mxCell>
        <mxCell id="aD1stk46LfaJt2utOllN-117" value="" style="rounded=0;whiteSpace=wrap;html=1;" parent="1" vertex="1">
          <mxGeometry x="710" y="325" width="24" height="20" as="geometry" />
        </mxCell>
        <mxCell id="aD1stk46LfaJt2utOllN-118" value="INT" style="rounded=0;whiteSpace=wrap;html=1;" parent="1" vertex="1">
          <mxGeometry x="829" y="325" width="91" height="20" as="geometry" />
        </mxCell>
        <mxCell id="aD1stk46LfaJt2utOllN-119" value="" style="rounded=0;whiteSpace=wrap;html=1;" parent="1" vertex="1">
          <mxGeometry x="710" y="345" width="24" height="20" as="geometry" />
        </mxCell>
        <mxCell id="aD1stk46LfaJt2utOllN-120" value="TIMESTAMP" style="rounded=0;whiteSpace=wrap;html=1;" parent="1" vertex="1">
          <mxGeometry x="829" y="345" width="91" height="20" as="geometry" />
        </mxCell>
        <mxCell id="aD1stk46LfaJt2utOllN-121" value="&lt;font&gt;enrolled_at&lt;/font&gt;" style="rounded=0;whiteSpace=wrap;html=1;" parent="1" vertex="1">
          <mxGeometry x="734" y="345" width="95" height="20" as="geometry" />
        </mxCell>
        <mxCell id="aD1stk46LfaJt2utOllN-122" value="" style="rounded=0;whiteSpace=wrap;html=1;" parent="1" vertex="1">
          <mxGeometry x="710" y="365" width="24" height="20" as="geometry" />
        </mxCell>
        <mxCell id="aD1stk46LfaJt2utOllN-123" value="VARCHAR(50)" style="rounded=0;whiteSpace=wrap;html=1;" parent="1" vertex="1">
          <mxGeometry x="829" y="365" width="91" height="20" as="geometry" />
        </mxCell>
        <mxCell id="aD1stk46LfaJt2utOllN-124" value="&lt;font&gt;order_num&lt;/font&gt;" style="rounded=0;whiteSpace=wrap;html=1;" parent="1" vertex="1">
          <mxGeometry x="734" y="365" width="95" height="20" as="geometry" />
        </mxCell>
        <mxCell id="aD1stk46LfaJt2utOllN-133" value="" style="group" parent="1" vertex="1" connectable="0">
          <mxGeometry x="740" y="440" width="210" height="81" as="geometry" />
        </mxCell>
        <mxCell id="aD1stk46LfaJt2utOllN-134" value="&lt;b&gt;progress&lt;/b&gt;" style="rounded=0;whiteSpace=wrap;html=1;fillColor=#fff2cc;strokeColor=#d6b656;" parent="aD1stk46LfaJt2utOllN-133" vertex="1">
          <mxGeometry width="210" height="21" as="geometry" />
        </mxCell>
        <mxCell id="aD1stk46LfaJt2utOllN-135" value="PK" style="rounded=0;whiteSpace=wrap;html=1;fillColor=#647687;fontColor=#ffffff;strokeColor=#314354;" parent="aD1stk46LfaJt2utOllN-133" vertex="1">
          <mxGeometry y="21" width="23.75" height="20" as="geometry" />
        </mxCell>
        <mxCell id="aD1stk46LfaJt2utOllN-136" value="" style="rounded=0;whiteSpace=wrap;html=1;fillColor=#647687;fontColor=#ffffff;strokeColor=#314354;" parent="aD1stk46LfaJt2utOllN-133" vertex="1">
          <mxGeometry x="118.75" y="21" width="91.25" height="20" as="geometry" />
        </mxCell>
        <mxCell id="aD1stk46LfaJt2utOllN-137" value="id" style="rounded=0;whiteSpace=wrap;html=1;fillColor=#647687;fontColor=#ffffff;strokeColor=#314354;" parent="aD1stk46LfaJt2utOllN-133" vertex="1">
          <mxGeometry x="23.75" y="21" width="95" height="20" as="geometry" />
        </mxCell>
        <mxCell id="aD1stk46LfaJt2utOllN-138" value="" style="rounded=0;whiteSpace=wrap;html=1;" parent="aD1stk46LfaJt2utOllN-133" vertex="1">
          <mxGeometry y="41" width="23.75" height="20" as="geometry" />
        </mxCell>
        <mxCell id="aD1stk46LfaJt2utOllN-139" value="INT" style="rounded=0;whiteSpace=wrap;html=1;" parent="aD1stk46LfaJt2utOllN-133" vertex="1">
          <mxGeometry x="118.75" y="41" width="91.25" height="20" as="geometry" />
        </mxCell>
        <mxCell id="aD1stk46LfaJt2utOllN-140" value="user_id" style="rounded=0;whiteSpace=wrap;html=1;" parent="aD1stk46LfaJt2utOllN-133" vertex="1">
          <mxGeometry x="23.75" y="41" width="95" height="20" as="geometry" />
        </mxCell>
        <mxCell id="aD1stk46LfaJt2utOllN-141" value="&lt;font&gt;lesson_id&lt;/font&gt;" style="rounded=0;whiteSpace=wrap;html=1;" parent="aD1stk46LfaJt2utOllN-133" vertex="1">
          <mxGeometry x="23.75" y="61" width="96.25" height="20" as="geometry" />
        </mxCell>
        <mxCell id="aD1stk46LfaJt2utOllN-142" value="" style="rounded=0;whiteSpace=wrap;html=1;" parent="1" vertex="1">
          <mxGeometry x="740" y="501" width="24" height="20" as="geometry" />
        </mxCell>
        <mxCell id="aD1stk46LfaJt2utOllN-143" value="INT" style="rounded=0;whiteSpace=wrap;html=1;" parent="1" vertex="1">
          <mxGeometry x="859" y="501" width="91" height="20" as="geometry" />
        </mxCell>
        <mxCell id="aD1stk46LfaJt2utOllN-144" value="" style="rounded=0;whiteSpace=wrap;html=1;" parent="1" vertex="1">
          <mxGeometry x="740" y="521" width="24" height="20" as="geometry" />
        </mxCell>
        <mxCell id="aD1stk46LfaJt2utOllN-145" value="VARCHAR(50)" style="rounded=0;whiteSpace=wrap;html=1;" parent="1" vertex="1">
          <mxGeometry x="859" y="521" width="91" height="20" as="geometry" />
        </mxCell>
        <mxCell id="aD1stk46LfaJt2utOllN-146" value="&lt;font&gt;status&lt;/font&gt;" style="rounded=0;whiteSpace=wrap;html=1;" parent="1" vertex="1">
          <mxGeometry x="764" y="521" width="95" height="20" as="geometry" />
        </mxCell>
        <mxCell id="aD1stk46LfaJt2utOllN-147" value="" style="rounded=0;whiteSpace=wrap;html=1;" parent="1" vertex="1">
          <mxGeometry x="740" y="541" width="24" height="20" as="geometry" />
        </mxCell>
        <mxCell id="aD1stk46LfaJt2utOllN-148" value="TIMESTAMP" style="rounded=0;whiteSpace=wrap;html=1;" parent="1" vertex="1">
          <mxGeometry x="859" y="541" width="91" height="20" as="geometry" />
        </mxCell>
        <mxCell id="aD1stk46LfaJt2utOllN-149" value="&lt;font&gt;updated_at&lt;/font&gt;" style="rounded=0;whiteSpace=wrap;html=1;" parent="1" vertex="1">
          <mxGeometry x="764" y="541" width="95" height="20" as="geometry" />
        </mxCell>
        <mxCell id="aD1stk46LfaJt2utOllN-150" value="" style="edgeStyle=entityRelationEdgeStyle;fontSize=12;html=1;endArrow=ERoneToMany;rounded=0;exitX=0;exitY=0.5;exitDx=0;exitDy=0;entryX=1;entryY=0.5;entryDx=0;entryDy=0;" parent="1" source="aD1stk46LfaJt2utOllN-62" target="aD1stk46LfaJt2utOllN-118" edge="1">
          <mxGeometry width="100" height="100" relative="1" as="geometry">
            <mxPoint x="950" y="130" as="sourcePoint" />
            <mxPoint x="980" y="330" as="targetPoint" />
            <Array as="points">
              <mxPoint x="1230" y="230" />
              <mxPoint x="980" y="270" />
              <mxPoint x="1090" y="310" />
              <mxPoint x="930" y="190" />
              <mxPoint x="1000" y="230" />
              <mxPoint x="1020" y="270" />
              <mxPoint x="1010" y="280" />
              <mxPoint x="990" y="250" />
            </Array>
          </mxGeometry>
        </mxCell>
        <mxCell id="aD1stk46LfaJt2utOllN-151" value="" style="group" parent="1" vertex="1" connectable="0">
          <mxGeometry x="360" y="140" width="210" height="161" as="geometry" />
        </mxCell>
        <mxCell id="aD1stk46LfaJt2utOllN-36" value="" style="group" parent="aD1stk46LfaJt2utOllN-151" vertex="1" connectable="0">
          <mxGeometry width="210" height="81" as="geometry" />
        </mxCell>
        <mxCell id="aD1stk46LfaJt2utOllN-29" value="&lt;b&gt;users&lt;/b&gt;" style="rounded=0;whiteSpace=wrap;html=1;fillColor=#fff2cc;strokeColor=#d6b656;" parent="aD1stk46LfaJt2utOllN-36" vertex="1">
          <mxGeometry width="210" height="21" as="geometry" />
        </mxCell>
        <mxCell id="aD1stk46LfaJt2utOllN-30" value="PK" style="rounded=0;whiteSpace=wrap;html=1;fillColor=#647687;fontColor=#ffffff;strokeColor=#314354;" parent="aD1stk46LfaJt2utOllN-36" vertex="1">
          <mxGeometry y="21" width="23.75" height="20" as="geometry" />
        </mxCell>
        <mxCell id="aD1stk46LfaJt2utOllN-31" value="" style="rounded=0;whiteSpace=wrap;html=1;fillColor=#647687;fontColor=#ffffff;strokeColor=#314354;" parent="aD1stk46LfaJt2utOllN-36" vertex="1">
          <mxGeometry x="118.75" y="21" width="91.25" height="20" as="geometry" />
        </mxCell>
        <mxCell id="aD1stk46LfaJt2utOllN-32" value="id" style="rounded=0;whiteSpace=wrap;html=1;fillColor=#647687;fontColor=#ffffff;strokeColor=#314354;" parent="aD1stk46LfaJt2utOllN-36" vertex="1">
          <mxGeometry x="23.75" y="21" width="95" height="20" as="geometry" />
        </mxCell>
        <mxCell id="aD1stk46LfaJt2utOllN-33" value="" style="rounded=0;whiteSpace=wrap;html=1;" parent="aD1stk46LfaJt2utOllN-36" vertex="1">
          <mxGeometry y="41" width="23.75" height="20" as="geometry" />
        </mxCell>
        <mxCell id="aD1stk46LfaJt2utOllN-34" value="&lt;span style=&quot;font-size: 12px;&quot;&gt;VARCHAR(255)&lt;/span&gt;" style="rounded=0;whiteSpace=wrap;html=1;" parent="aD1stk46LfaJt2utOllN-36" vertex="1">
          <mxGeometry x="118.75" y="41" width="91.25" height="20" as="geometry" />
        </mxCell>
        <mxCell id="aD1stk46LfaJt2utOllN-35" value="email" style="rounded=0;whiteSpace=wrap;html=1;" parent="aD1stk46LfaJt2utOllN-36" vertex="1">
          <mxGeometry x="23.75" y="41" width="95" height="20" as="geometry" />
        </mxCell>
        <mxCell id="aD1stk46LfaJt2utOllN-39" value="&lt;font&gt;password_hash&lt;/font&gt;" style="rounded=0;whiteSpace=wrap;html=1;" parent="aD1stk46LfaJt2utOllN-36" vertex="1">
          <mxGeometry x="23.75" y="61" width="96.25" height="20" as="geometry" />
        </mxCell>
        <mxCell id="aD1stk46LfaJt2utOllN-37" value="" style="rounded=0;whiteSpace=wrap;html=1;" parent="aD1stk46LfaJt2utOllN-151" vertex="1">
          <mxGeometry y="61" width="24" height="20" as="geometry" />
        </mxCell>
        <mxCell id="aD1stk46LfaJt2utOllN-38" value="&lt;span style=&quot;font-size: 12px;&quot;&gt;TEXT&amp;nbsp;&lt;/span&gt;" style="rounded=0;whiteSpace=wrap;html=1;" parent="aD1stk46LfaJt2utOllN-151" vertex="1">
          <mxGeometry x="119" y="61" width="91" height="20" as="geometry" />
        </mxCell>
        <mxCell id="aD1stk46LfaJt2utOllN-40" value="" style="rounded=0;whiteSpace=wrap;html=1;" parent="aD1stk46LfaJt2utOllN-151" vertex="1">
          <mxGeometry y="81" width="24" height="20" as="geometry" />
        </mxCell>
        <mxCell id="aD1stk46LfaJt2utOllN-41" value="&lt;span style=&quot;font-size: 12px;&quot;&gt;VARCHAR(255)&lt;/span&gt;" style="rounded=0;whiteSpace=wrap;html=1;" parent="aD1stk46LfaJt2utOllN-151" vertex="1">
          <mxGeometry x="119" y="81" width="91" height="20" as="geometry" />
        </mxCell>
        <mxCell id="aD1stk46LfaJt2utOllN-42" value="&lt;font&gt;name&lt;/font&gt;" style="rounded=0;whiteSpace=wrap;html=1;" parent="aD1stk46LfaJt2utOllN-151" vertex="1">
          <mxGeometry x="24" y="81" width="95" height="20" as="geometry" />
        </mxCell>
        <mxCell id="aD1stk46LfaJt2utOllN-51" value="" style="rounded=0;whiteSpace=wrap;html=1;" parent="aD1stk46LfaJt2utOllN-151" vertex="1">
          <mxGeometry y="101" width="24" height="20" as="geometry" />
        </mxCell>
        <mxCell id="aD1stk46LfaJt2utOllN-52" value="&lt;span style=&quot;font-size: 12px;&quot;&gt;VARCHAR(50)&lt;/span&gt;" style="rounded=0;whiteSpace=wrap;html=1;" parent="aD1stk46LfaJt2utOllN-151" vertex="1">
          <mxGeometry x="119" y="101" width="91" height="20" as="geometry" />
        </mxCell>
        <mxCell id="aD1stk46LfaJt2utOllN-53" value="&lt;font&gt;role&lt;/font&gt;" style="rounded=0;whiteSpace=wrap;html=1;" parent="aD1stk46LfaJt2utOllN-151" vertex="1">
          <mxGeometry x="24" y="101" width="95" height="20" as="geometry" />
        </mxCell>
        <mxCell id="aD1stk46LfaJt2utOllN-54" value="" style="rounded=0;whiteSpace=wrap;html=1;" parent="aD1stk46LfaJt2utOllN-151" vertex="1">
          <mxGeometry y="121" width="24" height="20" as="geometry" />
        </mxCell>
        <mxCell id="aD1stk46LfaJt2utOllN-55" value="&lt;span style=&quot;font-size: 12px;&quot;&gt;TIMESTAMP&lt;/span&gt;" style="rounded=0;whiteSpace=wrap;html=1;" parent="aD1stk46LfaJt2utOllN-151" vertex="1">
          <mxGeometry x="119" y="121" width="91" height="20" as="geometry" />
        </mxCell>
        <mxCell id="aD1stk46LfaJt2utOllN-56" value="&lt;font&gt;created_at&lt;/font&gt;" style="rounded=0;whiteSpace=wrap;html=1;" parent="aD1stk46LfaJt2utOllN-151" vertex="1">
          <mxGeometry x="24" y="121" width="95" height="20" as="geometry" />
        </mxCell>
        <mxCell id="aD1stk46LfaJt2utOllN-57" value="" style="rounded=0;whiteSpace=wrap;html=1;" parent="aD1stk46LfaJt2utOllN-151" vertex="1">
          <mxGeometry y="141" width="24" height="20" as="geometry" />
        </mxCell>
        <mxCell id="aD1stk46LfaJt2utOllN-58" value="&lt;span style=&quot;font-size: 12px;&quot;&gt;TIMESTAMP&lt;/span&gt;" style="rounded=0;whiteSpace=wrap;html=1;" parent="aD1stk46LfaJt2utOllN-151" vertex="1">
          <mxGeometry x="119" y="141" width="91" height="20" as="geometry" />
        </mxCell>
        <mxCell id="aD1stk46LfaJt2utOllN-59" value="&lt;font&gt;updated_at&lt;/font&gt;" style="rounded=0;whiteSpace=wrap;html=1;" parent="aD1stk46LfaJt2utOllN-151" vertex="1">
          <mxGeometry x="24" y="141" width="95" height="20" as="geometry" />
        </mxCell>
        <mxCell id="aD1stk46LfaJt2utOllN-152" value="" style="group" parent="1" vertex="1" connectable="0">
          <mxGeometry x="1270" y="250" width="210" height="161" as="geometry" />
        </mxCell>
        <mxCell id="aD1stk46LfaJt2utOllN-84" value="" style="group" parent="aD1stk46LfaJt2utOllN-152" vertex="1" connectable="0">
          <mxGeometry width="210" height="81" as="geometry" />
        </mxCell>
        <mxCell id="aD1stk46LfaJt2utOllN-85" value="&lt;b&gt;lessons&lt;/b&gt;" style="rounded=0;whiteSpace=wrap;html=1;fillColor=#fff2cc;strokeColor=#d6b656;" parent="aD1stk46LfaJt2utOllN-84" vertex="1">
          <mxGeometry width="210" height="21" as="geometry" />
        </mxCell>
        <mxCell id="aD1stk46LfaJt2utOllN-86" value="PK" style="rounded=0;whiteSpace=wrap;html=1;fillColor=#647687;fontColor=#ffffff;strokeColor=#314354;" parent="aD1stk46LfaJt2utOllN-84" vertex="1">
          <mxGeometry y="21" width="23.75" height="20" as="geometry" />
        </mxCell>
        <mxCell id="aD1stk46LfaJt2utOllN-87" value="" style="rounded=0;whiteSpace=wrap;html=1;fillColor=#647687;fontColor=#ffffff;strokeColor=#314354;" parent="aD1stk46LfaJt2utOllN-84" vertex="1">
          <mxGeometry x="118.75" y="21" width="91.25" height="20" as="geometry" />
        </mxCell>
        <mxCell id="aD1stk46LfaJt2utOllN-88" value="id" style="rounded=0;whiteSpace=wrap;html=1;fillColor=#647687;fontColor=#ffffff;strokeColor=#314354;" parent="aD1stk46LfaJt2utOllN-84" vertex="1">
          <mxGeometry x="23.75" y="21" width="95" height="20" as="geometry" />
        </mxCell>
        <mxCell id="aD1stk46LfaJt2utOllN-89" value="" style="rounded=0;whiteSpace=wrap;html=1;" parent="aD1stk46LfaJt2utOllN-84" vertex="1">
          <mxGeometry y="41" width="23.75" height="20" as="geometry" />
        </mxCell>
        <mxCell id="aD1stk46LfaJt2utOllN-90" value="INT" style="rounded=0;whiteSpace=wrap;html=1;" parent="aD1stk46LfaJt2utOllN-84" vertex="1">
          <mxGeometry x="118.75" y="41" width="91.25" height="20" as="geometry" />
        </mxCell>
        <mxCell id="aD1stk46LfaJt2utOllN-91" value="course_id&amp;nbsp;" style="rounded=0;whiteSpace=wrap;html=1;" parent="aD1stk46LfaJt2utOllN-84" vertex="1">
          <mxGeometry x="23.75" y="41" width="95" height="20" as="geometry" />
        </mxCell>
        <mxCell id="aD1stk46LfaJt2utOllN-92" value="&lt;font&gt;title&lt;/font&gt;" style="rounded=0;whiteSpace=wrap;html=1;" parent="aD1stk46LfaJt2utOllN-84" vertex="1">
          <mxGeometry x="23.75" y="61" width="96.25" height="20" as="geometry" />
        </mxCell>
        <mxCell id="aD1stk46LfaJt2utOllN-93" value="" style="rounded=0;whiteSpace=wrap;html=1;" parent="aD1stk46LfaJt2utOllN-152" vertex="1">
          <mxGeometry y="61" width="24" height="20" as="geometry" />
        </mxCell>
        <mxCell id="aD1stk46LfaJt2utOllN-94" value="VARCHAR(255)" style="rounded=0;whiteSpace=wrap;html=1;" parent="aD1stk46LfaJt2utOllN-152" vertex="1">
          <mxGeometry x="119" y="61" width="91" height="20" as="geometry" />
        </mxCell>
        <mxCell id="aD1stk46LfaJt2utOllN-95" value="" style="rounded=0;whiteSpace=wrap;html=1;" parent="aD1stk46LfaJt2utOllN-152" vertex="1">
          <mxGeometry y="81" width="24" height="20" as="geometry" />
        </mxCell>
        <mxCell id="aD1stk46LfaJt2utOllN-96" value="TEXT&amp;nbsp;" style="rounded=0;whiteSpace=wrap;html=1;" parent="aD1stk46LfaJt2utOllN-152" vertex="1">
          <mxGeometry x="119" y="81" width="91" height="20" as="geometry" />
        </mxCell>
        <mxCell id="aD1stk46LfaJt2utOllN-97" value="&lt;font&gt;content&lt;/font&gt;" style="rounded=0;whiteSpace=wrap;html=1;" parent="aD1stk46LfaJt2utOllN-152" vertex="1">
          <mxGeometry x="24" y="81" width="95" height="20" as="geometry" />
        </mxCell>
        <mxCell id="aD1stk46LfaJt2utOllN-98" value="" style="rounded=0;whiteSpace=wrap;html=1;" parent="aD1stk46LfaJt2utOllN-152" vertex="1">
          <mxGeometry y="101" width="24" height="20" as="geometry" />
        </mxCell>
        <mxCell id="aD1stk46LfaJt2utOllN-99" value="INT" style="rounded=0;whiteSpace=wrap;html=1;" parent="aD1stk46LfaJt2utOllN-152" vertex="1">
          <mxGeometry x="119" y="101" width="91" height="20" as="geometry" />
        </mxCell>
        <mxCell id="aD1stk46LfaJt2utOllN-100" value="&lt;font&gt;order_num&lt;/font&gt;" style="rounded=0;whiteSpace=wrap;html=1;" parent="aD1stk46LfaJt2utOllN-152" vertex="1">
          <mxGeometry x="24" y="101" width="95" height="20" as="geometry" />
        </mxCell>
        <mxCell id="aD1stk46LfaJt2utOllN-101" value="" style="rounded=0;whiteSpace=wrap;html=1;" parent="aD1stk46LfaJt2utOllN-152" vertex="1">
          <mxGeometry y="121" width="24" height="20" as="geometry" />
        </mxCell>
        <mxCell id="aD1stk46LfaJt2utOllN-102" value="&lt;span style=&quot;font-size: 12px;&quot;&gt;TIMESTAMP&lt;/span&gt;" style="rounded=0;whiteSpace=wrap;html=1;" parent="aD1stk46LfaJt2utOllN-152" vertex="1">
          <mxGeometry x="119" y="121" width="91" height="20" as="geometry" />
        </mxCell>
        <mxCell id="aD1stk46LfaJt2utOllN-103" value="&lt;font&gt;created_at&lt;/font&gt;" style="rounded=0;whiteSpace=wrap;html=1;" parent="aD1stk46LfaJt2utOllN-152" vertex="1">
          <mxGeometry x="24" y="121" width="95" height="20" as="geometry" />
        </mxCell>
        <mxCell id="aD1stk46LfaJt2utOllN-104" value="" style="rounded=0;whiteSpace=wrap;html=1;" parent="aD1stk46LfaJt2utOllN-152" vertex="1">
          <mxGeometry y="141" width="24" height="20" as="geometry" />
        </mxCell>
        <mxCell id="aD1stk46LfaJt2utOllN-105" value="&lt;span style=&quot;font-size: 12px;&quot;&gt;TIMESTAMP&lt;/span&gt;" style="rounded=0;whiteSpace=wrap;html=1;" parent="aD1stk46LfaJt2utOllN-152" vertex="1">
          <mxGeometry x="119" y="141" width="91" height="20" as="geometry" />
        </mxCell>
        <mxCell id="aD1stk46LfaJt2utOllN-106" value="&lt;font&gt;updated_at&lt;/font&gt;" style="rounded=0;whiteSpace=wrap;html=1;" parent="aD1stk46LfaJt2utOllN-152" vertex="1">
          <mxGeometry x="24" y="141" width="95" height="20" as="geometry" />
        </mxCell>
        <mxCell id="aD1stk46LfaJt2utOllN-153" value="" style="edgeStyle=entityRelationEdgeStyle;fontSize=12;html=1;endArrow=ERoneToMany;rounded=0;entryX=0;entryY=0.5;entryDx=0;entryDy=0;" parent="1" target="aD1stk46LfaJt2utOllN-89" edge="1">
          <mxGeometry width="100" height="100" relative="1" as="geometry">
            <mxPoint x="1210" y="130" as="sourcePoint" />
            <mxPoint x="1000" y="405" as="targetPoint" />
            <Array as="points">
              <mxPoint x="1310" y="340" />
              <mxPoint x="1060" y="380" />
              <mxPoint x="1170" y="420" />
              <mxPoint x="1010" y="300" />
              <mxPoint x="1080" y="340" />
              <mxPoint x="1100" y="380" />
              <mxPoint x="1090" y="390" />
              <mxPoint x="1070" y="360" />
            </Array>
          </mxGeometry>
        </mxCell>
        <mxCell id="aD1stk46LfaJt2utOllN-154" value="" style="edgeStyle=entityRelationEdgeStyle;fontSize=12;html=1;endArrow=ERoneToMany;rounded=0;entryX=0;entryY=0.5;entryDx=0;entryDy=0;exitX=1;exitY=0.75;exitDx=0;exitDy=0;" parent="1" source="aD1stk46LfaJt2utOllN-31" target="aD1stk46LfaJt2utOllN-138" edge="1">
          <mxGeometry width="100" height="100" relative="1" as="geometry">
            <mxPoint x="1270" y="460" as="sourcePoint" />
            <mxPoint x="1330" y="631" as="targetPoint" />
            <Array as="points">
              <mxPoint x="1370" y="670" />
              <mxPoint x="1120" y="710" />
              <mxPoint x="1230" y="750" />
              <mxPoint x="1070" y="630" />
              <mxPoint x="1140" y="670" />
              <mxPoint x="1160" y="710" />
              <mxPoint x="1150" y="720" />
              <mxPoint x="1130" y="690" />
            </Array>
          </mxGeometry>
        </mxCell>
        <mxCell id="aD1stk46LfaJt2utOllN-155" value="" style="edgeStyle=entityRelationEdgeStyle;fontSize=12;html=1;endArrow=ERoneToMany;rounded=0;entryX=1;entryY=0.5;entryDx=0;entryDy=0;exitX=0;exitY=0.5;exitDx=0;exitDy=0;" parent="1" source="aD1stk46LfaJt2utOllN-86" target="aD1stk46LfaJt2utOllN-143" edge="1">
          <mxGeometry width="100" height="100" relative="1" as="geometry">
            <mxPoint x="1140" y="540" as="sourcePoint" />
            <mxPoint x="1310" y="855" as="targetPoint" />
            <Array as="points">
              <mxPoint x="1940" y="1034" />
              <mxPoint x="1690" y="1074" />
              <mxPoint x="1800" y="1114" />
              <mxPoint x="1640" y="994" />
              <mxPoint x="1710" y="1034" />
              <mxPoint x="1730" y="1074" />
              <mxPoint x="1720" y="1084" />
              <mxPoint x="1700" y="1054" />
            </Array>
          </mxGeometry>
        </mxCell>
        <mxCell id="Iz5L6FlSo2MUUFgnQxwl-1" value="Добавить сущность модули, моду4ли должны показывать к5акие есть лессоны и будет оттдельынй эндпоинт" style="text;html=1;align=center;verticalAlign=middle;whiteSpace=wrap;rounded=0;" vertex="1" parent="1">
          <mxGeometry x="1230" y="451" width="210" height="160" as="geometry" />
        </mxCell>
      </root>
    </mxGraphModel>
  </diagram>
</mxfile>
